<svg version="1.1" viewBox="0 0 737 736" xmlns="http://www.w3.org/2000/svg">
<g transform="translate(4.31 43)">
<g transform="translate(-4.09 -43)">
<path d="m0.00798 488c1.54-86.4-3.06-173 3.09-259 15.9-33.2 12.3 50.1 25.4 7.86-6.43-39 26.1-49.6 51.2-33.1 12.7-39.8 13.6-67.4-1.51-111 4.38-26.2 34.7 23.1 34.2-23.3-1.38-20.2 16.5-85.3 21.6-29.9 19.3 54.8-66.2 81.8-20.7 135 23.8 41.9-16.8 99.1 28.6 130 25.7 20.9 78.8 39.7 57.5-11.5 27.4-39.4-10.2 54.8 40.3 42.9 25-11.3 18.6-54.2 25.3-9.49 13.2 46.7 37.1 88.1 59.1 131 24.5 56.5 39.2 120 19.2 180-28.1 47.5-0.817-55.4-7.81-71.4 8.36-48-46.6-43.6-40.5-11.3 46.4-7.57-43.3 46.1-17.6 90 22.5 44.6 84 16.8 119 45.1 51.7-24.3 38.3-89.5 41.2-136 18.5-50.3-32.3-65.7-57.3-87.2 32.8 26.2 80.6 20.7 73.1-28.3 21.7-44.2-31.9-84.6 5.78-118 19.8-28.5-14.3-120 8.16-111 2.89 39.3 38 91.1 31.5 117 49.5 3.99 56-76.8 77.3-87.3-2.69 41.4-54.8 99.4-73.1 95.9 49.7 1.93 120-10.6 128-68.6-4.91-70.6 24.4 27.8-13.8 41.9-12.6 20 75.7-16.1 53.7-52.4 38-39 28.5-111 14.8-157-39.1-14.5-110-71.9-38.2-96.4 25.3 19.6 29.6 38.7 59.3 6.64-3.86 50.9 27.7 104 4.53 154 1.71 58.3 31.3-59.1 25.1 9.03-0.234 188 0.612 376 0.439 564h-736c9.16e-4 -82.7 0.00183-165 0.00275-248zm547 221c-6.82-7.51-10.7 9.77 0 0zm-312-12.8c4.98-17.2-9.66 4.23 0 0zm301-17.4c-1.73-10.3-9.16 12.2 0 0zm111-42.4c2.47-14.3-7.6 10.4 0 0zm17.3-4.14c7.61-15-11.6 7.05 0 0zm-69.1-5.93c-4.35-10.6-7.52 7.38 0 0zm77.2-3.5-2.64-0.904zm26-8.04c0.405-13.4-9.86 6.85 0 0zm-23.6-6.89c4.79-13.6-9.91 6.09 0 0zm-577-10.9c-5.37-8.06-2.96 9.88 0 0zm170 0.08c14.8-9.33 1.59-12.6 0 0zm-4.64-11.2c47.1-31.6-32.4-2.77 0 0zm-13.1-4.27c13.9-24.6-19.1 0.886 0 0zm-18.3-2.42c7.58-15.8-11.5 10.2 0 0zm55-1.77c4.39-12-16.1 19.9 0 0zm-52.9-8.77c23.6-15.1 23.5-50.6-2.61-16.9-4 4.81-12.8 23.2 2.61 16.9zm24.6-8.85c22.6-31.4-23.2 18.6 0 0zm338-5.86c-2.27-8.57-8.21 6.15 0 0zm-320-12.4c40.1-33.7 9.51-18.4 0 0zm13.7-1.95c19.9-18.2-15.9 10.4 0 0zm-12.8-10.4c43.7-34.9-50-16.2-6.56 7.72zm-133 3.7c-2.34-13.9-8.26 6.48 0 0zm439-16.1c-5.99-6.53-5.42 6.06 0 0zm-449-1.97c43.8-4.68-51.3-1.71 0 0zm356-144c-3.17-9.18-6.86 4.66 0 0zm-268-1.55c68.9-13.2-41.5-41.5-66.9-39.1-25.8 0.748-107-39.2-73.9 13.9 41.2 25.8 94.3 23.4 141 25.2zm-77.6-8.04c-45.2-3.67 15.6-13.5 0 0zm14.2-2.06c0.541-16.8 9.97 11.5 0 0zm13.1-1.86c4.75-9.24 6.3 9.03 0 0zm-71.6-8.58c-29.8-2.91 26.4-5.59 0 0zm474 17.4c30.3 13.6 120-27.3 72.8-45.4-33.2 10.9-62.9 30.7-84.5 13-24.9 5.46-115 16.4-47.3 34.6 19.5-1.02 39.6 1.35 59-2.13zm-114-5.51c-12.7-26-30.2 7.31 0 0zm14-31.1c0.748-8.17-7.45 5.49 0 0zm153-5c36.7-17.4 0.19-14.8-9.95 1.14zm-467-2.66c-10.8-17.9-22.4 10.5 0 0zm-21.1-1.49c20.2-12.7-15.3 0.821 0 0zm-8.31-8.07c-15.9-24-33-112-65.4-53.6-11.3 32.8 38.9 66.4 65.4 53.6zm-53.7-17.9c0.775-18 16.8 8.62 0 0zm4.82-25.8c-6.65-16 16.8 2.95 0 0zm577 37.2c28.1-6.87-13.8 0.719 0 0zm58.8-28.1c18.4-16.6-18.4 9.23 0 0zm-694-1.2c-3.99-13.4-9.86 4.56 0 0zm712-41 0.311 6.64zm-406 397c-0.217-11 6.35 4.93 0 0zm98.8-25.9c1.87-10.4 7.87 8.5 0 0zm-66.8-31.8c4-10.5 5.59 9.38 0 0zm73.1-93c-23.1-0.785-86.9-41-32.3-25 12.8 4.75 26.8 11.5 32.3 25zm15.1-76.1c-2.92-11.9 9.7 7.27 0 0zm-153-33.3c-18.7-22.9 17.6-26.8 0 0zm56.7-5.5c-18.6-45.2-5.32-98.5-8.72-145-2-35.6 18.8-51.8 43.5-57.1 30.4-51.5 38.7 82.4-12.6 65 24.3 28.2 82.1 35.8 69.5 89.4-9.1 46.1-59 34.9-91.7 47.4zm26.3-11.4c36.7 8.83 71.4-44.7 20.1-50.6-21.6-18.6-32.6-44.6-6.55-9.82 37.3 34.3 61.4-10.4 14-21.6-33.7-6.29-59.1-97.1-19.2-52.8 58.9-40.3-31-67.7-34.7-3.6-1.68 46.7-7.63 97 1.19 143 7.78 5.82 17.9-0.452 25.1-4.03zm7.18-161c-11.7-8.05 5.55-11.2 0 0zm51.7 128c-9.6-4.24 3.82 24.8 0 0zm-13.8-47.2c14.2-33.9-63.5-13.6-7.81-0.079l3.95 1.94zm-76.7-39.3c-0.868-18.4-5.17 17.1 0 0zm-30.1 105c-10.2-20.7-39.6 1.86-27.4-35.4-1.37-30.4 13.5-57.6 11.1-10.2 2.33 16.1 7.48 31.9 16.3 45.6zm-180-163c-3.82-13.3 11.7 6.09 0 0zm-7.57-11.6c-0.211-14.1 15.8 2.23 0 0zm-129-163c2.74-14.3 6.91 8.76 0 0zm731 1.44c-9.55-17.4 14.8 7.4 0 0z" fill="#a5ada0"/>
<path d="m0 730c23-5.53 64.1-11.7 17.2-25.9-14-21.4-28-106 11.2-53.8 33.8 32.7 69.5 85 124 74.1-34.6-12.7-48.9-49-37.7-89.1-28.7-38.7-116 26.7-118-55.1-15.2-66.5 100-7.79 64.3-63.6-93 9-53.9-101-60.9-158 3.57-31.3-14-131 28.6-68.3 22.2 48.7 71.6 73.9 123 76.8 26.2-0.804 103 16.5 97.4-15.3-48.6-27.7-109-13.7-157-40.7-24.7 4.41-28.3 26.2-29.5-10.2-11.5-24.6-74.1-56.6-51.3-70.1 12.7 42.8 63.3 63.7 55.7 16.5-30.2 53.8 68.5 91.6 83 68.5-39-6.83-51.8-91.3-30.5-91-25.6 53.6 33.3 103 82.1 107 21.5-5.43-15-47.7 8.75-46.2-28.2 36.8 65.4 77.7 56.9 65.4 9.06-1.91 30.9 73.9 49.2 95.2 32 62.5 48.3 141 16.2 207 6.83-44.5 24.6-102-18.9-135-33.4-27.3-73.1 7.59-63.6 11.3-33.5-10.3-92.5 6.03-107 26.1 15.2 13 66.7 59.5 15.6 42.5-18.5-32.9-85.6-62.9-109-38.2 41.7 36.6 108 30.2 142 78.5 36.4-5.93 6.6-34.6 36.6-49.2 16.4-35.9-24.3 55.3 15.6 26.7 11.1-26.8 83.7-85.7 30.3-31.8-15.7 24.2 45.3-32.8 10.6-1.19-39.4 9.08 6.87 98-21.7 42.6-21.8-13.4-33.7 30.9-13.4-6.92 12.7-25.6-76.2 44.1-15.6 39.1 30.1 11.4 93.1 38 69.2 17.4 34.8 0.596 83.3 82.1 127 25.6 49.6-45.1 94.2-106 166-114 41-6.74 96.1-32.1 114-49.5-49.1-4.63-101 36.3-155 22.2 22.4-18.3-22.4-30.6 13-25.3 40.5-38.7-79.2-14-84.5 27-3.76 6.76-20.1 52.3-13.1 19.8-11.5 18.9-33.7 73.5-34.3 18.4 15.5-49.3 0.165-121-46.8-127 39.1 34.9 71.7-4.08 65.7-44.3 18.6-17.2 33.3-64.9 22.9-69.8 57.2 15.2 128 18.9 180-12.7 29.8-12.1 77.4-80.6 19.7-39.2-42.9 15-89.3 40.4-126 27.2-26.6 11.7-94.5 6.93-30.3 1.36 54.2 2.57 130-34.2 105-99.3 42.6 30.5-61.8 106 8.39 73.5 29.8-15 29.9-33.6 57.8-19 46-16.9 15.1-76.4 36.3-117 11.8 43.5-1.27 89.1 5.03 134 0.155 64.2 2.28 129-0.0596 193-20 17.8-65.2 29.7-13 33.6 18.1 24.9 26.5 98.9-23.2 116-26 43.7-75.5 20.7-82.4-18.2-11.4 27-83.7 93.6-17 93.8 52.7 13.2 88.9-34.7 117-70.6 41.1-22.7 26.1 116-33.5 80.2-228 1.81-456 0.224-684 0.743v-3.15zm368-7.5c-4.15-8.1-3.84 8.36 0 0zm145-8.75c-5.44-10.5-5.82 9.35 0 0zm18.2-1.78c-4.75-9.24-6.3 9.03 0 0zm17.1-2.69c-6.12-12.1-13.3 10.3 0 0zm-281-0.533c-5.25-8.38-3.27 8.31 0 0zm296-1.69c-1.78-8.54-5.24 6.63 0 0zm-328-13.6 0.0663-1.16zm332 2.91c-1.13-11-6.24 10 0 0zm-15.2-2.24c-4.58-18-22.6 2.64 0 0zm-253-2.94c-3.52-9.37-5.21 8.84 0 0zm262-1.32c0.611-10.3-8.72 6.74 0 0zm3.8-8.75c-43.7-23.8-6.73 11.4 0 0zm-27.7-2.12c-1.91-15.3-9.73 12 0 0zm196-24.5c-5.99-12.1-8.2 11.8 0 0zm-89-4.54c2.74-11.7-9.74 5.87 0 0zm20-7.08c-6.74-5.9-3.16 9.58 0 0zm-16.8-5.21c13.1-18.3-15 2.61 0 0zm18.9-5.13c22.2-21.4-20.9-0.51 0 0zm38.9-4.55c-2.02-13-5.95 8.16 0 0zm-108-1.08c-3.53-12.8-12.4 7.71 0 0zm23.3-8.92c-0.714-9.48-8.83 7.52 0 0zm79.1-3.15c2.87-15.5-12.3 6.97 0 0zm-26.9-2.35c20.5-20-25.1 0.419 0 0zm52.4-2.16c0.587-8.42-6.31 5.01 0 0zm-98.1-2.9c-5.89-9.79-6.03 9.73 0 0zm-19.1-5.39c-10.1-11 4.51 10.3 0 0zm-510-2.01c10.7-19.1-19.6 3.15 0 0zm600-18.2c-6.86-10.5-4.08 11.9 0 0zm-628-0.433c-5.11-9.28-4.41 9.59 0 0zm638-26c-0.672-13.4-12.1 6.65 0 0zm-108-1.03c-4.24-15-14.3 10.2 0 0zm13.5-5.44c-5.1-8.29-5.66 8.47 0 0zm-463-13.6c39.2 12.1 58.2-47 6.45-24.8-42.3-11.3-47.1 24.1-6.45 24.8zm-66.6-11.1c7.76-22.6-23 3.7 0 0zm125-7.46c26.1-31.4-50.5-7.68 0 0zm421-192c21.1-15.5 84-37 22.8-19.4-6.17 2.53-50.4 18.1-22.8 19.4zm-516 390c-24.9-12.3-39.7-77.7-16.6-24.7 5.96 7.9 12.8 15.4 16.6 24.7zm273-9.26c3.73-9.02 7.21 7.02 0 0zm21-14.7c21-33.8 25.4-11.5 0 0zm-155-35c0.264-14.7 5.3 13.3 0 0zm-14.6-59.1c6.16-12.7 16.4 0.231 0 0zm276-3.03c23.4-26.4 38.8-16.5 0 0zm-292-16.1c-8.21-36.9 18.9 4.05 0 0zm50.9-17.2c1.72-17.3 55.7-40.2 17.3-12.4l-7.99 7.45zm240-0.0984c0.0859-14.6 11-6.95 0 0zm-246-15c-16.7-9.74 5.43-7.1 0 0zm28.1-15.7c34-32.7-3.11 7.84 0 0zm123-56.7c-60.3-23.6 7.79-2.04 0 0zm-63.9-109c-5.7-7.59 17 10.5 0 0zm50.3-8.39c0.523-9.13 12.8 11.4 0 0zm25.2-15c18.4-36.7 1.15 15.4 0 0zm-80.2-6.75c-3.42-26.8 7.14 11 0 0zm121 4.09c-4.4-12.2 19.7 5.59 0 0zm10.7-3.97c51.6-1.72 76.1-44.3 91.5-90.7-5.31 29.2-30.9 91.3-78.9 88.6l-6.32 1.04zm-171-3.63c-36.2-14.2 1.21-100-9.49-30.3 0.479 10.7 3.22 21.5 9.49 30.3zm126-14.4c-12.8-9.98 22 2.93 0 0zm-24.8-4.64c-5.02-12.8 22.5 11.3 0 0zm59-17.4c-7.16-18.1 6.93 7.42 0 0zm-133-40.2c0.0726-36.2 31.1 7.82 0 0zm36.8-21.9c-10.1-65 9.3 22.7 0 0zm11.5-0.0121c17.5-23.7 24-8.59 0 0zm-33.6-2.83c-10.4-13 9.24-11.7 0 0zm-273-13.6c1.02-11.2 11.5 5.49 0 0zm620-9.59c-6.64-9.98-2.69-40.9 0.468-11.6 9.28-26.6 15.6 25.4-0.468 11.6zm-637-0.28c-2.53-9.55 10.6 11.4 0 0zm349-1.77c-6.32-20.3 8.72-24.3 0 0zm-60.1-1.37c-6.96-53.6 64.2-24.5 0 0zm17.8-21.1c-3.87-7.56-4.79 8.73 0 0zm33-9.49c-19.9-23 18.1-28.8 0 0zm302 2.53c2.01-17.8 9.63-7.24 0 0zm-598-8.66c-4.03-13.1 6.57 5.69 0 0zm627-1.91c-8.73-29.8 20-11.4 0 0zm-633-6.67c-2.94-9.98 6.83 5.1 0 0zm601-6.24c-4.86-24.5 8.2-12.6 2.59 2.27zm15.4-10.7c0.104-23.4 6.78 5.49 0 0zm-619-4.72c-5.59-14.4 12.2-3.19 0 0zm617-36.8c-0.992-25.4 3.17 16.4 0 0zm-604-1.84c-5.94-12.5 16.9-14 0 0zm560-11c-19.4-14.5 23 9.28 0 0zm44.2-1.08c-9.26-23.1 1.53-26.4 0 0zm-580-1.5c-4.49-27.3-3.8-96.7 1.6-32.2 0.572 10.7 0.495 21.6-1.6 32.2zm488-25.7c-4.01-29.5 20.2-67.3 2.51-16.3l-1.67 8.08zm85.7-17.9c-1.43-20.1 1-17.5 0 0zm-32.7-0.849c-19.3-10.1-12.9-46.2-8.89-8.34-0.794 2.19 22.9 6.37 8.89 8.34zm-551-15.7c-6.91-20.7 8.96 2.26 0 0zm611-18.9c-14.8-17.7 13 6.94 0 0zm-732-1.23c4.55-18.6 6.61 13.3 0 0z" fill="#3a9087"/>
<path d="m1.75 734c11.2-13.4 71.8-4.57 26.6-24.6-21.8-11.9-31.5-61.7-20.5-74.8 44.1 31.6 73.2 99.1 136 93 39.1-12.9-55.6-17.9-31.2-56.2 31-48.1-37.9-69.3-67.5-42.1-55 3.3-68.8-110-3.72-76.2 39.7 45.9 105 35.5 144 79.9 40 44.8 110 34.8 153 68.8 52.3 46.1 101 3.81 135-42.7 41-43.5 96.5-74 157-75.8 40.5-22.5 110-63.5 105 12.7-10.5 34.6-63.5 88.6-95.1 72.1-11.4-36.7-36.1-50.2-46.6-4.05-36.6 25.5-36.3 77.4 19.1 64.6 58.3 13.6 84.7-81.4 121-73.4 16.5 45.2-12 99.6-66.1 79.6-223 2.41-446 2.12-668-0.975zm367-9.91c-1.17-11.6-8.37 8.28 0 0zm146-9.61c-8.66-15-9.01 13.2 0 0zm-216-0.152c-7.55-8.95-12.1 9.05 0 0zm234-0.5c-4.01-13.8-12.6 9.8 0 0zm16.6-3.19c-7.89-16.8-16.5 11.2 0 0zm-281-0.105c-0.497-13.2-10.5 8.37 0 0zm296-0.891c3.03-11.6-10.9 5.38 0 0zm-249-6.06c-4.74-7.22-3.11 8.49 0 0zm192 0.581c-3.5-12.8-12.1 7.7 0 0zm60.5-5.08c7.84-16.1-15.7 5.72 0 0zm-331-4.89c-8.12-26.8-7.07 23.1 0 0zm309 4.48c-0.557-11.6-9.88 7.25 0 0zm7.5-3.16c-3.96-23-25.6 5.5 0 0zm-253-3.11c-4.45-12.7-8.51 10.6 0 0zm-25.2 0.571c-1.87-8.69-6.37 6.58 0 0zm288-3.1c15.4-38.3-24.7 14.5 0 0zm-40.3-5.29c-6.64-12.8-8.83 12.8 0 0zm-278-0.765c-3.52-9.37-5.21 8.84 0 0zm-70 0.0883c1.95-8.92-7.89 4.8 0 0zm88-2.57c-6.16-11.9-6.09 11.9 0 0zm274 0.229c3.75-18.5-16.3 10.5 0 0zm-261-1.46c-5.89-9.79-6.03 9.73 0 0zm234-3.68c-0.97-10.7-6.88 7.63 0 0zm-309-1.76c-2.86-9.42-7.27 7.31 0 0zm38.6-4.21c-8.49-7.53-0.741 8.99 0 0zm-13.9-4.3c-4.12-11-7.16 8.29 0 0zm509-9.63c-2.27-18.3-14.9 11.2 0 0zm-155-0.846c-2.32-12-8.9 10.2 0 0zm-388-3.61c-4.9-8.07-3.95 7.63 0 0zm453-0.438c2.45-12.1-11.2 6.45 0 0zm20-6.14c0.397-17-11.8 12.8 0 0zm-124-4.94c-3.39-8.98-6.31 8.08 0 0zm108-3.45c0.342-24.3-14.9 16.4 0 0zm41.5 1.98c-2.91-8.38-3 7.3 0 0zm-163-1.02c-0.119-11.4-8.73 7.78 0 0zm139-4.41c30.9-19.9-26-5.83 0 0zm38.5-4.09c0.162-14.3-9.27 6.88 0 0zm-109-0.391c1.14-17.6-17.6 6.2 0 0zm-436-6.11c-4.9-8.07-3.95 7.63 0 0zm461-2.87c-0.172-15.1-14.4 8.14 0 0zm77.1-3.11c8.24-20.2-18.7 4.18 0 0zm-23.2-4.97c3-25.3-23.4 16.1 0 0zm49.9-0.546c-0.646-14.1-11.5 8.07 0 0zm-97.1-2.08c-2.97-12.2-10.7 8.56 0 0zm-18.2-2.79c-0.752-20-19.4 0.461 0 0zm-512-6.07c6.15-24.2-18.4 9.46 0 0zm589-10c-8.88-11.6-20.2 3.69 0 0zm42.4-1.39c-0.656-8.52-7.06 5.39 0 0zm-34-4.04c4.62-15.8-14.2 6.9 0 0zm-626-3.54c-7.15-11.7-5.11 13.2 0 0zm-11.5-5.55c-4.3-5.79-2.39 8.61 0 0zm633 0.558c0.816-10-8.14 5.66 0 0zm-661-8.14c-1.4-13.9-8.52 9.75 0 0zm299 89.5c19-49.6 25.8-128-35.7-150-34.8-2.31-106 37.6-119 25.2 53.3-2.46 27.6-55.7-6.82-28.1 65.7-11.4 44.3-149-12.9-116 16.3 58.4-61 102-104 61.5-25.8-29-2.62-88.4-50-92-1.76-26.2-12.5-133 25.2-65.7 26.7 47.2 76.5 73.2 130 76 36.9 10.8 103-2.58 103-15.5 35.4 41.6 57.7 93.5 76.8 144 16.2 51.9 21 112-6.18 161zm-227-211c9.15-38.3-36.8 9.47 0 0zm-24.5-24.5c10.1-38-34.3 7.92 0 0zm31.7-21.1c45.5-50.4-77.1-9.41 0 0zm331 199c1.29-52.6-6.51-107 15.3-157 4.85-58.5 52.2-90.5 107-72.4 53.6 2.8 108-18.3 141-61.7 8.77-42.2-70.1 31.6-105 22.5-28.8 21.6-4.51-14.4-41 0.215-48.4 9.51 47.3-1.96 55-26.5 37.5-34.6-10.5-7.02-6.45 16.1 31.6-26 107-16.4 112-61.8-1.13-21.8 12.2-77.6 16.7-76.6-5.23 62.9 3.83 126 1.05 189-12.5 38.7-0.045 108-66.8 101-57.6-2.04-62.1-61.1-53.9-101-56.6-10.1-87 77.2-48.9 115 43.3 41.4 109 15.3 163 23-45.7 11.2-80.8 54.3-132 47-40.7 8.68-34.3-16.6-14-34.1-42.4-33.5-95.7 27.2-118 63.5-10.9 9.91-30.2 77.4-24.9 13.8zm173-48.8c-2.19-17.8-15.6 11.5 0 0zm2.08-7.3c3.45-9.13-10.8 7.21 0 0zm-21.7-13.3c-5.54-12.3-10.7 10.3 0 0zm22.7-7.89c9.72-13.7-11.1 5.23 0 0zm77.1-69.9c37-41-47.6-6.37 0 0zm21.4-35.2c29.4-50-51.1 3.21 0 0zm-38-2.47c54-34.9-63.8-67.2-28-5.81 6.51 7.81 18.9 11.8 28 5.81zm-50.1-88.4c21.8-14.3 87.5-39.2 22.6-21.2-7.13-2.22-52 27.2-22.6 21.2zm-410 297c-15.9-11.8 8.65-4.41 0 0zm44.4-14.7c-4.87-19 9.06 3.12 0 0zm-0.803-8.67c-5.6-11.7 12.6-5.61 0 0zm-97.4-2.6c-22.1-24.4-54.4-46.8-79.3-43.7-6.69-26.9-50.5-54.9 0.669-47.1 19.1 0.886 66.9-6.78 32.3 9.41-4.98 25.2 87.5 77.7 46.3 81.3zm-80.8-70.5c21.2-22.7-28.7-3.99 0 0zm202 44.2c19.8-23.5-6.07 13.1 0 0zm8.11 4.99c3.76-14.3 11.1 0.0538 0 0zm-18-18.6c3.54-13.2 8.15 4.73 0 0zm460-10.2c-23.3 2.87 3.7-5.97 0 0zm-31.7-13.4c6.68-4.59 12 8.23 0 0zm-690-28c-32.3-6.93 17.9-6.91 0 0zm262-144c-16.7-12.7 7.96-8.85 0 0zm-44.5-14.4c-33-13.1-4.21-9.69-20.3-35.3-8.61 11.3 48 39 20.3 35.3zm199-5.6c0.767-12.4 13.9-3.68 0 0zm53.5-8.78c-0.533-8.94 8.59 5.39 0 0zm-340-4.13c-52.1-6.8-93.6-38.5-127-75.6-23.8-53 37.1 48.3 64.6 50.7 13.7 15.4 60.2 15.3 61.9 24.9zm32-0.871c-27.3 7.62 0.982-13.7 0 0zm127-5.84c-19.7-10.2 0.362-57.4-3.69-14.5-1.58-0.991 14 22.8 3.69 14.5zm215 2.73c24.8-9.5-10.5 6.71 0 0zm8.59-2.41c20.2-22.2 19.5-7.04 0 0zm-384-15.4c-37.7 3.96-31-107-27.2-40.8-2.14 11.2 42.9 55.7 27.2 40.8zm293 8.48c3.04-8.92 10.8 8.5 0 0zm-26.5-5.55c1.19-9.73 14.3 16.8 0 0zm142-25.5c4.12-15 6.89 1.04 0 0zm11.8-13c4.3-22.5 20.3-38.1 0 0zm76-4.93c-24.5-46.3 1.58-9.9 0 0zm-337-3.38c1.43-14.3 2.37 9.55 0 0zm36-9.96c-0.95-27.8 27.9 4.29 0 0zm57.7-28.9c13.4-20.1-2.81 10.4 0 0zm-44.7-1.61c-7.3-26.2 7.28 9.27 0 0zm351-19c-17.2-20.9 12.7 6.5 0 0zm-350-4.43c-15.3-33.6 50.2-26.9 9.43 0.301l-4.72 1.67zm12.5-8.45c1.27-10.3-6.83 8.43 0 0zm3.94-7.4c8.09-16.2-13-8.26 0 0zm29.5-16c-17.1-19.2 15.4 8.75 0 0zm335-4.25c-6.41-20.6 14.5-18.7 0 0zm-334-2.99c-1.35-20.3 14.9-17.2 0 0zm-272-148c-2.88-9.51 9.94 7.08 0 0zm606-8.75c-9.05-10.1 8.03 8.47 0 0zm-732-0.7c4.22-15.7 4.65 11.9 0 0z" fill="#112d2f"/>
</g>
</g>
</svg>
